<svg xmlns="http://www.w3.org/2000/svg" width="686" height="452"><rect width="686" height="452" fill="#0f1220"/>
    <rect x="14" y="14" width="210" height="132" rx="16" fill="none" stroke="#7c5cff" stroke-opacity="0.3" stroke-width="1.5"/>
    
    <svg x="120" y="28" width="104" height="104" color="#7c5cff" opacity="0.22" viewBox="0 0 100 100" fill="none" stroke="currentColor" stroke-width="4"
         stroke-linecap="round" stroke-linejoin="round">
      <circle cx="44" cy="44" r="26"/>
      <path d="M63 63 L84 84"/>
      <path d="M35 52 L44 33 L53 52 M38 46 H50"/>
    </svg>
    <text x="32" y="116" fill="#7c5cff" font-family="sans-serif" font-size="18" font-weight="700">aintaword</text>
    <text x="32" y="133" fill="#a6abcf" font-family="sans-serif" font-size="11.5">daily puzzle</text>
    <rect x="238" y="14" width="210" height="132" rx="16" fill="none" stroke="#f4c430" stroke-opacity="0.3" stroke-width="1.5"/>
    
    <svg x="344" y="28" width="104" height="104" color="#f4c430" opacity="0.22" viewBox="0 0 100 100" fill="none" stroke="currentColor" stroke-width="4"
         stroke-linecap="round" stroke-linejoin="round">
      <rect x="10" y="30" width="80" height="40" rx="7"/>
      <circle cx="21" cy="40" r="2.5" fill="currentColor" stroke="none"/>
      <circle cx="79" cy="40" r="2.5" fill="currentColor" stroke="none"/>
      <path d="M28 44v12 M40 44v12 M50 44l7 12 M57 44l-7 12 M66 44v12"/>
    </svg>
    <text x="256" y="116" fill="#f4c430" font-family="sans-serif" font-size="18" font-weight="700">vanityplate</text>
    <text x="256" y="133" fill="#a6abcf" font-family="sans-serif" font-size="11.5">daily puzzle</text>
    <rect x="462" y="14" width="210" height="132" rx="16" fill="none" stroke="#4fc978" stroke-opacity="0.3" stroke-width="1.5"/>
    
    <svg x="568" y="28" width="104" height="104" color="#4fc978" opacity="0.22" viewBox="0 0 100 100" fill="none" stroke="currentColor" stroke-width="4"
         stroke-linecap="round" stroke-linejoin="round">
      <path d="M50 86 V54 M50 54 L32 34 M50 54 L68 34
               M32 34 L23 20 M32 34 L41 20 M68 34 L59 20 M68 34 L77 20"/>
      <circle cx="23" cy="18" r="4" fill="currentColor" stroke="none"/>
      <circle cx="41" cy="18" r="4" fill="currentColor" stroke="none"/>
      <circle cx="59" cy="18" r="4" fill="currentColor" stroke="none"/>
      <circle cx="77" cy="18" r="4" fill="currentColor" stroke="none"/>
    </svg>
    <text x="480" y="116" fill="#4fc978" font-family="sans-serif" font-size="18" font-weight="700">rootword</text>
    <text x="480" y="133" fill="#a6abcf" font-family="sans-serif" font-size="11.5">daily puzzle</text>
    <rect x="14" y="160" width="210" height="132" rx="16" fill="none" stroke="#49c6e0" stroke-opacity="0.3" stroke-width="1.5"/>
    
    <svg x="120" y="174" width="104" height="104" color="#49c6e0" opacity="0.22" viewBox="0 0 100 100" fill="none" stroke="currentColor" stroke-width="4"
         stroke-linejoin="round">
      <rect x="20" y="20" width="60" height="60" rx="5"/>
      <path d="M40 20 V80 M60 20 V80 M20 40 H80 M20 60 H80"/>
      <path d="M20 20 L80 80" stroke-width="5" stroke-dasharray="7 6"/>
    </svg>
    <text x="32" y="262" fill="#49c6e0" font-family="sans-serif" font-size="18" font-weight="700">mirrorword</text>
    <text x="32" y="279" fill="#a6abcf" font-family="sans-serif" font-size="11.5">daily puzzle</text>
    <rect x="238" y="160" width="210" height="132" rx="16" fill="none" stroke="#5b8ff5" stroke-opacity="0.3" stroke-width="1.5"/>
    
    <svg x="344" y="174" width="104" height="104" color="#5b8ff5" opacity="0.22" viewBox="0 0 100 100" fill="none" stroke="currentColor" stroke-width="4"
         stroke-linejoin="round">
      <path d="M50 16 L82 42 L50 86 L18 42 Z"/>
      <path d="M18 42 H82 M50 16 L37 42 L50 86 M50 16 L63 42 L50 86"/>
    </svg>
    <text x="256" y="262" fill="#5b8ff5" font-family="sans-serif" font-size="18" font-weight="700">wordiamond</text>
    <text x="256" y="279" fill="#a6abcf" font-family="sans-serif" font-size="11.5">daily puzzle</text>
    <rect x="462" y="160" width="210" height="132" rx="16" fill="none" stroke="#d0553f" stroke-opacity="0.3" stroke-width="1.5"/>
    
    <svg x="568" y="174" width="104" height="104" color="#d0553f" opacity="0.22" viewBox="0 0 100 100" fill="none" stroke="currentColor" stroke-width="4"
         stroke-linejoin="round">
      <rect x="28" y="60" width="42" height="16" rx="2"/>
      <rect x="34" y="42" width="36" height="16" rx="2"/>
      <rect x="30" y="24" width="30" height="16" rx="2"/>
    </svg>
    <text x="480" y="262" fill="#d0553f" font-family="sans-serif" font-size="18" font-weight="700">storey</text>
    <text x="480" y="279" fill="#a6abcf" font-family="sans-serif" font-size="11.5">daily puzzle</text>
    <rect x="14" y="306" width="210" height="132" rx="16" fill="none" stroke="#e07818" stroke-opacity="0.3" stroke-width="1.5"/>
    
    <svg x="120" y="320" width="104" height="104" color="#e07818" opacity="0.22" viewBox="0 0 100 100" fill="none" stroke="currentColor" stroke-width="4"
         stroke-linejoin="round">
      <circle cx="50" cy="50" r="33"/>
      <path transform="translate(37 31) scale(1.05)" fill="currentColor" stroke="none"
            d="M12 2 L14.9 8.6 L22 9.2 L16.6 13.9 L18.2 21 L12 17.2 L5.8 21
               L7.4 13.9 L2 9.2 L9.1 8.6 Z"/>
      <circle cx="27" cy="35" r="2.4" fill="currentColor" stroke="none"/>
      <circle cx="73" cy="35" r="2.4" fill="currentColor" stroke="none"/>
      <circle cx="30" cy="66" r="2.4" fill="currentColor" stroke="none"/>
      <circle cx="70" cy="66" r="2.4" fill="currentColor" stroke="none"/>
    </svg>
    <text x="32" y="408" fill="#e07818" font-family="sans-serif" font-size="18" font-weight="700">colorpath</text>
    <text x="32" y="425" fill="#a6abcf" font-family="sans-serif" font-size="11.5">daily puzzle</text>
    <rect x="238" y="306" width="210" height="132" rx="16" fill="none" stroke="#ff8a3d" stroke-opacity="0.3" stroke-width="1.5"/>
    
    <svg x="344" y="320" width="104" height="104" color="#ff8a3d" opacity="0.22" viewBox="0 0 100 100" fill="none" stroke="currentColor" stroke-width="4"
         stroke-linecap="round" stroke-linejoin="round">
      <circle cx="50" cy="50" r="15"/>
      <path d="M50 27 V16 M50 73 V84 M27 50 H16 M73 50 H84
               M34 34 L26 26 M66 34 L74 26 M34 66 L26 74 M66 66 L74 74"/>
      <circle cx="22" cy="22" r="4" fill="currentColor" stroke="none"/>
      <circle cx="80" cy="26" r="3" fill="currentColor" stroke="none"/>
      <circle cx="24" cy="78" r="3" fill="currentColor" stroke="none"/>
    </svg>
    <text x="256" y="408" fill="#ff8a3d" font-family="sans-serif" font-size="18" font-weight="700">numburst</text>
    <text x="256" y="425" fill="#a6abcf" font-family="sans-serif" font-size="11.5">daily puzzle</text>
    <rect x="462" y="306" width="210" height="132" rx="16" fill="none" stroke="#4ad9e4" stroke-opacity="0.3" stroke-width="1.5"/>
    
    <svg x="568" y="320" width="104" height="104" color="#4ad9e4" opacity="0.22" viewBox="0 0 100 100" fill="none" stroke="currentColor" stroke-linecap="round"
         stroke-linejoin="round">
      <path d="M12 34 H52 V78" stroke-width="4"/>
      <path d="M40 24 L64 46" stroke-width="3.5"/>
      <path d="M30 78 H74" stroke-width="4" stroke-dasharray="7 5"/>
      <circle cx="52" cy="78" r="4.5" fill="currentColor" stroke="none"/>
    </svg>
    <text x="480" y="408" fill="#4ad9e4" font-family="sans-serif" font-size="18" font-weight="700">photonfinish</text>
    <text x="480" y="425" fill="#a6abcf" font-family="sans-serif" font-size="11.5">daily puzzle</text></svg>